<svg width="180" height="32" viewBox="0 0 4267 4267" xmlns="http://www.w3.org/2000/svg">
    <g transform="matrix(1,0,0,1,-14.4165,-108.492199)" fill="#ffffff">
        <path d="M1933.844,2718.563C1948.805,2688.245 2182.947,2407.184 2182.947,2407.184C2182.947,2407.184 2236.02,2372.692 2291.93,2407.184L2603.309,2811.977C2603.309,2811.977 2801.376,3039.176 3163.791,3045.511C3163.791,3045.511 3402.776,3052.685 3568.584,2920.959C3568.584,2920.959 3681.304,2842.588 3708.705,2804.192C3708.705,2804.192 3793.755,2680.131 3872.179,2679.64L4167.989,2788.623C4167.989,2788.623 4221.927,2812.571 4238.049,2897.606L4238.049,2936.528C4238.049,2936.528 3959.183,3542.653 3148.222,3567.071C3148.222,3567.071 2516.171,3678.694 1933.844,2788.623C1933.844,2788.623 1918.883,2748.881 1933.844,2718.563Z"/>
        <path d="M781.741,3131.141L2136.24,1410.771C2136.24,1410.771 2412.605,907.012 3163.791,912.564C3163.791,912.564 3906.635,885.625 4245.833,1582.029L4245.833,1628.736C4245.833,1628.736 4234.683,1676.036 4183.557,1714.365C4183.557,1714.365 3931.864,1838.335 3848.824,1823.348C3848.824,1823.348 3838.485,1824.219 3786.548,1799.995C3786.548,1799.995 3597.035,1447.256 3148.221,1426.34C2987.588,1418.854 2753.205,1503.624 2595.523,1667.659C2437.841,1831.693 1147.61,3512.58 1147.61,3512.58C1147.61,3512.58 1120.003,3552.318 1054.196,3551.502C1003.956,3550.88 859.584,3551.502 859.584,3551.502C859.584,3551.502 769.884,3537.408 750.601,3419.166L750.601,3208.985C750.601,3208.985 757.527,3166.473 781.739,3131.14L781.741,3131.141Z"/>
        <path d="M50,3419.166L50,1091.607C50,1091.607 56.25,968.558 182.336,951.486L641.62,951.486C641.62,951.486 687.921,955.22 735.034,1013.762C782.146,1072.304 1482.344,1940.115 1482.344,1940.115C1482.344,1940.115 1519.481,1990.099 1474.56,2033.529L1225.457,2360.477C1225.457,2360.477 1187.737,2383.285 1155.397,2352.693L618.268,1683.228C618.268,1683.228 580.609,1639.289 563.777,1698.797L563.777,3403.598C563.777,3403.598 542.036,3542.103 408.087,3551.503L174.553,3551.503C174.553,3551.503 64.384,3535.029 50.001,3419.167L50,3419.166Z"/>
    </g>
</svg>
